<svg width="25" height="24" viewBox="0 0 25 24" fill="none" xmlns="http://www.w3.org/2000/svg">
<path fill-rule="evenodd" clip-rule="evenodd" d="M12.1313 15.2463L20.2137 23.3302C20.6426 23.7591 21.2242 24 21.8308 24C22.4373 24 23.019 23.7591 23.4478 23.3302C23.8767 22.9013 24.1176 22.3196 24.1176 21.7131C24.1176 21.1066 23.8767 20.5249 23.4478 20.096L15.3624 12.0137L23.4463 3.93134C23.6586 3.71898 23.8269 3.46689 23.9418 3.18947C24.0566 2.91205 24.1157 2.61473 24.1156 2.31448C24.1155 2.01423 24.0563 1.71694 23.9413 1.43957C23.8264 1.16221 23.6579 0.910199 23.4455 0.697941C23.2332 0.485684 22.9811 0.317332 22.7037 0.202497C22.4263 0.0876621 22.1289 0.0285937 21.8287 0.0286645C21.5284 0.0287352 21.2311 0.0879434 20.9538 0.202909C20.6764 0.317874 20.4244 0.486346 20.2122 0.698704L12.1313 8.78105L4.04899 0.698704C3.8382 0.480255 3.58601 0.305973 3.30715 0.186028C3.02829 0.0660828 2.72833 0.00287582 2.42477 9.58721e-05C2.12122 -0.00268408 1.82015 0.0550182 1.53914 0.169836C1.25813 0.284654 1.00279 0.454288 0.788039 0.668839C0.573285 0.883391 0.403411 1.13856 0.288328 1.41947C0.173245 1.70038 0.115259 2.00139 0.117753 2.30494C0.120247 2.6085 0.18317 2.90852 0.302852 3.18749C0.422534 3.46647 0.596578 3.71882 0.814828 3.92981L8.90022 12.0137L0.816353 20.096C0.387477 20.5249 0.146537 21.1066 0.146537 21.7131C0.146537 22.3196 0.387477 22.9013 0.816353 23.3302C1.24523 23.7591 1.82691 24 2.43343 24C3.03995 24 3.62163 23.7591 4.05051 23.3302L12.1313 15.2448V15.2463Z" fill="black"/>
</svg>
