<svg width="15" height="15" viewBox="0 0 15 15" fill="none" xmlns="http://www.w3.org/2000/svg">
<path d="M7.5 9.54545C8.06818 9.54545 8.55114 9.34659 8.94886 8.94886C9.34659 8.55114 9.54545 8.06818 9.54545 7.5C9.54545 6.93182 9.34659 6.44886 8.94886 6.05114C8.55114 5.65341 8.06818 5.45455 7.5 5.45455C6.93182 5.45455 6.44886 5.65341 6.05114 6.05114C5.65341 6.44886 5.45455 6.93182 5.45455 7.5C5.45455 8.06818 5.65341 8.55114 6.05114 8.94886C6.44886 9.34659 6.93182 9.54545 7.5 9.54545ZM7.5 10.9091C6.55682 10.9091 5.75295 10.5766 5.08841 9.91159C4.42341 9.24705 4.09091 8.44318 4.09091 7.5C4.09091 6.55682 4.42341 5.75273 5.08841 5.08773C5.75295 4.42318 6.55682 4.09091 7.5 4.09091C8.44318 4.09091 9.24727 4.42318 9.91227 5.08773C10.5768 5.75273 10.9091 6.55682 10.9091 7.5C10.9091 8.44318 10.5768 9.24705 9.91227 9.91159C9.24727 10.5766 8.44318 10.9091 7.5 10.9091ZM0 8.18182V6.81818H2.72727V8.18182H0ZM12.2727 8.18182V6.81818H15V8.18182H12.2727ZM6.81818 2.72727V0H8.18182V2.72727H6.81818ZM6.81818 15V12.2727H8.18182V15H6.81818ZM3.64773 4.60227L1.96023 2.91477L2.91477 1.96023L4.60227 3.64773L3.64773 4.60227ZM12.0852 13.0398L10.3977 11.3523L11.3523 10.3977L13.0398 12.0852L12.0852 13.0398ZM11.3523 4.60227L10.3977 3.64773L12.0852 1.96023L13.0398 2.91477L11.3523 4.60227ZM2.91477 13.0398L1.96023 12.0852L3.64773 10.3977L4.60227 11.3523L2.91477 13.0398Z" fill="white"/>
</svg>
